<?xml version="1.0" encoding="UTF-8" standalone="no"?>
<!DOCTYPE svg PUBLIC "-//W3C//DTD SVG 1.1//EN"
 "http://www.w3.org/Graphics/SVG/1.1/DTD/svg11.dtd">
<!-- Generated by graphviz version 2.43.0 (0)
 -->
<!-- Title: %3 Pages: 1 -->
<svg width="3811pt" height="404pt"
 viewBox="0.00 0.00 3810.68 404.00" xmlns="http://www.w3.org/2000/svg" xmlns:xlink="http://www.w3.org/1999/xlink">
<g id="graph0" class="graph" transform="scale(1 1) rotate(0) translate(4 400)">
<title>%3</title>
<polygon fill="white" stroke="transparent" points="-4,4 -4,-400 3806.68,-400 3806.68,4 -4,4"/>
<!-- 0 -->
<g id="node1" class="node">
<title>0</title>
<ellipse fill="none" stroke="black" cx="1075.35" cy="-378" rx="122.38" ry="18"/>
<text text-anchor="middle" x="1075.35" y="-374.3" font-family="Times,serif" font-size="14.00">Id(0): Instance `Engine`</text>
</g>
<!-- 1 -->
<g id="node2" class="node">
<title>1</title>
<ellipse fill="none" stroke="black" cx="1075.35" cy="-306" rx="260.75" ry="18"/>
<text text-anchor="middle" x="1075.35" y="-302.3" font-family="Times,serif" font-size="14.00">Id(1): Device `Intel(R) HD Graphics 4600 (HSW GT2)`</text>
</g>
<!-- 0&#45;&gt;1 -->
<g id="edge1" class="edge">
<title>0&#45;&gt;1</title>
<path fill="none" stroke="black" d="M1075.35,-359.7C1075.35,-351.98 1075.35,-342.71 1075.35,-334.11"/>
<polygon fill="black" stroke="black" points="1078.85,-334.1 1075.35,-324.1 1071.85,-334.1 1078.85,-334.1"/>
</g>
<!-- 2 -->
<g id="node3" class="node">
<title>2</title>
<ellipse fill="none" stroke="black" cx="229.35" cy="-90" rx="159.47" ry="18"/>
<text text-anchor="middle" x="229.35" y="-86.3" font-family="Times,serif" font-size="14.00">Id(2): Swapchain `MainSurface`</text>
</g>
<!-- 1&#45;&gt;2 -->
<g id="edge2" class="edge">
<title>1&#45;&gt;2</title>
<path fill="none" stroke="black" d="M849.55,-296.95C642.9,-288.44 352.75,-273.29 240.35,-252 137.61,-232.54 77.95,-264.5 16.35,-180 -14.18,-138.11 40.5,-115.84 102.09,-104.04"/>
<polygon fill="black" stroke="black" points="102.81,-107.47 112.02,-102.24 101.56,-100.58 102.81,-107.47"/>
</g>
<!-- 3 -->
<g id="node4" class="node">
<title>3</title>
<ellipse fill="none" stroke="black" cx="243.35" cy="-162" rx="217.96" ry="18"/>
<text text-anchor="middle" x="243.35" y="-158.3" font-family="Times,serif" font-size="14.00">Id(3): Buffer `SurfaceManager buffer buffer`</text>
</g>
<!-- 1&#45;&gt;3 -->
<g id="edge3" class="edge">
<title>1&#45;&gt;3</title>
<path fill="none" stroke="black" d="M817.07,-303.53C594.98,-299.79 303.95,-287.96 262.35,-252 245.03,-237.02 241.23,-210.47 241.2,-190.26"/>
<polygon fill="black" stroke="black" points="244.7,-190.17 241.49,-180.08 237.7,-189.97 244.7,-190.17"/>
</g>
<!-- 4 -->
<g id="node5" class="node">
<title>4</title>
<ellipse fill="none" stroke="black" cx="2850.35" cy="-234" rx="311.94" ry="18"/>
<text text-anchor="middle" x="2850.35" y="-230.3" font-family="Times,serif" font-size="14.00">Id(4): CommandBuffer `SurfaceManager buffer command buffer`</text>
</g>
<!-- 1&#45;&gt;4 -->
<g id="edge4" class="edge">
<title>1&#45;&gt;4</title>
<path fill="none" stroke="black" d="M1307.08,-297.73C1594.05,-288.46 2097.84,-271.29 2529.35,-252 2559.79,-250.64 2591.84,-249.09 2623.44,-247.48"/>
<polygon fill="black" stroke="black" points="2623.87,-250.97 2633.68,-246.96 2623.51,-243.98 2623.87,-250.97"/>
</g>
<!-- 5 -->
<g id="node6" class="node">
<title>5</title>
<ellipse fill="none" stroke="black" cx="2295.35" cy="-162" rx="186.57" ry="18"/>
<text text-anchor="middle" x="2295.35" y="-158.3" font-family="Times,serif" font-size="14.00">Id(5): ShaderModule `ScreenTask VS`</text>
</g>
<!-- 1&#45;&gt;5 -->
<g id="edge5" class="edge">
<title>1&#45;&gt;5</title>
<path fill="none" stroke="black" d="M1322.75,-300.32C1601.36,-293.76 2024.57,-279.43 2094.35,-252 2117.55,-242.88 2115.61,-228.17 2137.35,-216 2162.99,-201.65 2193.14,-190.35 2220.2,-181.93"/>
<polygon fill="black" stroke="black" points="2221.45,-185.21 2230.01,-178.96 2219.43,-178.51 2221.45,-185.21"/>
</g>
<!-- 6 -->
<g id="node7" class="node">
<title>6</title>
<ellipse fill="none" stroke="black" cx="2333.35" cy="-234" rx="186.57" ry="18"/>
<text text-anchor="middle" x="2333.35" y="-230.3" font-family="Times,serif" font-size="14.00">Id(6): ShaderModule `ScreenTask FS`</text>
</g>
<!-- 1&#45;&gt;6 -->
<g id="edge6" class="edge">
<title>1&#45;&gt;6</title>
<path fill="none" stroke="black" d="M1294.37,-296.21C1508.22,-287.11 1842.82,-271.5 2132.35,-252 2151.56,-250.71 2171.78,-249.19 2191.7,-247.59"/>
<polygon fill="black" stroke="black" points="2192.08,-251.07 2201.77,-246.78 2191.52,-244.1 2192.08,-251.07"/>
</g>
<!-- 7 -->
<g id="node8" class="node">
<title>7</title>
<ellipse fill="none" stroke="black" cx="946.35" cy="-162" rx="182.77" ry="18"/>
<text text-anchor="middle" x="946.35" y="-158.3" font-family="Times,serif" font-size="14.00">Id(7): Sampler `ScreenTask sampler`</text>
</g>
<!-- 1&#45;&gt;7 -->
<g id="edge7" class="edge">
<title>1&#45;&gt;7</title>
<path fill="none" stroke="black" d="M1021.9,-288.31C1003.23,-280.07 983.63,-268.31 970.35,-252 956.18,-234.59 950.34,-209.55 947.95,-190.46"/>
<polygon fill="black" stroke="black" points="951.4,-189.88 946.92,-180.28 944.44,-190.58 951.4,-189.88"/>
</g>
<!-- 8 -->
<g id="node9" class="node">
<title>8</title>
<ellipse fill="none" stroke="black" cx="1611.35" cy="-234" rx="270.25" ry="18"/>
<text text-anchor="middle" x="1611.35" y="-230.3" font-family="Times,serif" font-size="14.00">Id(8): BindGroupLayout `ScreenTask bind group layout`</text>
</g>
<!-- 1&#45;&gt;8 -->
<g id="edge8" class="edge">
<title>1&#45;&gt;8</title>
<path fill="none" stroke="black" d="M1191.33,-289.85C1277.73,-278.57 1395.63,-263.17 1484.53,-251.56"/>
<polygon fill="black" stroke="black" points="1485.21,-255 1494.67,-250.24 1484.3,-248.06 1485.21,-255"/>
</g>
<!-- 9 -->
<g id="node10" class="node">
<title>9</title>
<ellipse fill="none" stroke="black" cx="735.35" cy="-90" rx="207.16" ry="18"/>
<text text-anchor="middle" x="735.35" y="-86.3" font-family="Times,serif" font-size="14.00">Id(9): BindGroup `ScreenTask bind group`</text>
</g>
<!-- 1&#45;&gt;9 -->
<g id="edge9" class="edge">
<title>1&#45;&gt;9</title>
<path fill="none" stroke="black" d="M966.55,-289.62C895.96,-273.93 807.54,-242.52 754.35,-180 739.84,-162.94 735.58,-137.49 734.66,-118.16"/>
<polygon fill="black" stroke="black" points="738.16,-118.08 734.45,-108.15 731.16,-118.22 738.16,-118.08"/>
</g>
<!-- 10 -->
<g id="node11" class="node">
<title>10</title>
<ellipse fill="none" stroke="black" cx="1802.35" cy="-162" rx="250.46" ry="18"/>
<text text-anchor="middle" x="1802.35" y="-158.3" font-family="Times,serif" font-size="14.00">Id(10): PipelineLayout `ScreenTask pipeline layout`</text>
</g>
<!-- 1&#45;&gt;10 -->
<g id="edge12" class="edge">
<title>1&#45;&gt;10</title>
<path fill="none" stroke="black" d="M1306.44,-297.65C1540.34,-289.06 1870.44,-273.25 1890.35,-252 1901.29,-240.32 1898.23,-229.93 1890.35,-216 1882.94,-202.88 1870.83,-192.65 1857.94,-184.82"/>
<polygon fill="black" stroke="black" points="1859.37,-181.61 1848.93,-179.79 1855.95,-187.72 1859.37,-181.61"/>
</g>
<!-- 11 -->
<g id="node12" class="node">
<title>11</title>
<ellipse fill="none" stroke="black" cx="1167.35" cy="-234" rx="155.17" ry="18"/>
<text text-anchor="middle" x="1167.35" y="-230.3" font-family="Times,serif" font-size="14.00">Id(11): Texture &#160;`DepthStencil`</text>
</g>
<!-- 1&#45;&gt;11 -->
<g id="edge14" class="edge">
<title>1&#45;&gt;11</title>
<path fill="none" stroke="black" d="M1097.63,-288.05C1109.4,-279.09 1124.04,-267.96 1136.86,-258.2"/>
<polygon fill="black" stroke="black" points="1139.13,-260.87 1144.97,-252.03 1134.89,-255.3 1139.13,-260.87"/>
</g>
<!-- 12 -->
<g id="node13" class="node">
<title>12</title>
<ellipse fill="none" stroke="black" cx="1321.35" cy="-162" rx="174.67" ry="18"/>
<text text-anchor="middle" x="1321.35" y="-158.3" font-family="Times,serif" font-size="14.00">Id(12): TextureView `DepthStencil`</text>
</g>
<!-- 1&#45;&gt;12 -->
<g id="edge15" class="edge">
<title>1&#45;&gt;12</title>
<path fill="none" stroke="black" d="M1039.71,-288.05C1025.7,-279.38 1011.13,-267.38 1003.35,-252 996.14,-237.72 993.01,-228.21 1003.35,-216 1016.04,-201.02 1110.33,-186.54 1192.97,-176.51"/>
<polygon fill="black" stroke="black" points="1193.47,-179.98 1202.99,-175.31 1192.64,-173.03 1193.47,-179.98"/>
</g>
<!-- 13 -->
<g id="node14" class="node">
<title>13</title>
<ellipse fill="none" stroke="black" cx="2080.35" cy="-90" rx="254.55" ry="18"/>
<text text-anchor="middle" x="2080.35" y="-86.3" font-family="Times,serif" font-size="14.00">Id(13): RenderPipeline `ScreenTask render pipeline`</text>
</g>
<!-- 1&#45;&gt;13 -->
<g id="edge17" class="edge">
<title>1&#45;&gt;13</title>
<path fill="none" stroke="black" d="M1318.68,-299.5C1523.63,-293.03 1800.04,-279.46 1907.35,-252 1980.55,-233.27 2014.32,-239.13 2061.35,-180 2075.15,-162.66 2079.53,-137.6 2080.67,-118.49"/>
<polygon fill="black" stroke="black" points="2084.18,-118.42 2081.02,-108.3 2077.18,-118.18 2084.18,-118.42"/>
</g>
<!-- 14 -->
<g id="node15" class="node">
<title>14</title>
<ellipse fill="none" stroke="black" cx="596.35" cy="-18" rx="263.45" ry="18"/>
<text text-anchor="middle" x="596.35" y="-14.3" font-family="Times,serif" font-size="14.00">Id(14): CommandBuffer `ScreenTask command buffer`</text>
</g>
<!-- 1&#45;&gt;14 -->
<g id="edge20" class="edge">
<title>1&#45;&gt;14</title>
<path fill="none" stroke="black" d="M815.98,-304.23C533.03,-301.41 111.56,-290.66 47.35,-252 15.42,-232.77 14.27,-215.93 4.35,-180 -10.08,-127.68 13.72,-98.02 61.35,-72 110.06,-45.4 228.94,-32.07 342.31,-25.43"/>
<polygon fill="black" stroke="black" points="342.77,-28.91 352.56,-24.85 342.37,-21.92 342.77,-28.91"/>
</g>
<!-- 15 -->
<g id="node16" class="node">
<title>15</title>
<ellipse fill="none" stroke="black" cx="3491.35" cy="-234" rx="311.14" ry="18"/>
<text text-anchor="middle" x="3491.35" y="-230.3" font-family="Times,serif" font-size="14.00">Id(15): CommandBuffer `ScreenTask data copy command buffer`</text>
</g>
<!-- 1&#45;&gt;15 -->
<g id="edge23" class="edge">
<title>1&#45;&gt;15</title>
<path fill="none" stroke="black" d="M1325.47,-300.92C1718.54,-294.01 2504.83,-278.13 3171.35,-252 3202.72,-250.77 3235.79,-249.26 3268.31,-247.65"/>
<polygon fill="black" stroke="black" points="3268.57,-251.14 3278.38,-247.14 3268.22,-244.15 3268.57,-251.14"/>
</g>
<!-- 16 -->
<g id="node17" class="node">
<title>16</title>
<ellipse fill="none" stroke="black" cx="477.35" cy="-234" rx="206.06" ry="18"/>
<text text-anchor="middle" x="477.35" y="-230.3" font-family="Times,serif" font-size="14.00">Id(16): Texture &#160;` texture texture texture`</text>
</g>
<!-- 1&#45;&gt;16 -->
<g id="edge24" class="edge">
<title>1&#45;&gt;16</title>
<path fill="none" stroke="black" d="M949.26,-290.24C848.12,-278.4 706.75,-261.85 605.16,-249.96"/>
<polygon fill="black" stroke="black" points="605.48,-246.47 595.14,-248.79 604.67,-253.43 605.48,-246.47"/>
</g>
<!-- 17 -->
<g id="node18" class="node">
<title>17</title>
<ellipse fill="none" stroke="black" cx="593.35" cy="-162" rx="114.28" ry="18"/>
<text text-anchor="middle" x="593.35" y="-158.3" font-family="Times,serif" font-size="14.00">Id(17): TextureView ``</text>
</g>
<!-- 1&#45;&gt;17 -->
<g id="edge25" class="edge">
<title>1&#45;&gt;17</title>
<path fill="none" stroke="black" d="M884.37,-293.66C834.31,-285.79 781.46,-272.91 735.35,-252 712.66,-241.7 713.01,-229.96 692.35,-216 674.89,-204.19 654.51,-192.91 636.8,-183.8"/>
<polygon fill="black" stroke="black" points="638.31,-180.65 627.81,-179.25 635.15,-186.89 638.31,-180.65"/>
</g>
<!-- 2&#45;&gt;14 -->
<g id="edge22" class="edge">
<title>2&#45;&gt;14</title>
<path fill="none" stroke="black" d="M306.74,-74.24C363.71,-63.37 441.48,-48.54 502.08,-36.98"/>
<polygon fill="black" stroke="black" points="502.87,-40.39 512.04,-35.08 501.56,-33.52 502.87,-40.39"/>
</g>
<!-- 3&#45;&gt;14 -->
<g id="edge29" class="edge">
<title>3&#45;&gt;14</title>
<path fill="none" stroke="black" d="M295.11,-144.47C325.19,-134.54 363.69,-121.29 397.35,-108 451.29,-86.71 511.95,-59.02 551.96,-40.22"/>
<polygon fill="black" stroke="black" points="553.62,-43.31 561.17,-35.88 550.63,-36.98 553.62,-43.31"/>
</g>
<!-- 5&#45;&gt;13 -->
<g id="edge19" class="edge">
<title>5&#45;&gt;13</title>
<path fill="none" stroke="black" d="M2244.95,-144.59C2214.01,-134.52 2174.2,-121.55 2141.48,-110.9"/>
<polygon fill="black" stroke="black" points="2142.16,-107.44 2131.57,-107.67 2139.99,-114.1 2142.16,-107.44"/>
</g>
<!-- 6&#45;&gt;13 -->
<g id="edge28" class="edge">
<title>6&#45;&gt;13</title>
<path fill="none" stroke="black" d="M2410.42,-217.53C2464.51,-203.27 2522.12,-178.99 2491.35,-144 2475.77,-126.27 2368.12,-112.79 2266.91,-103.86"/>
<polygon fill="black" stroke="black" points="2267.09,-100.36 2256.83,-102.98 2266.49,-107.34 2267.09,-100.36"/>
</g>
<!-- 7&#45;&gt;9 -->
<g id="edge11" class="edge">
<title>7&#45;&gt;9</title>
<path fill="none" stroke="black" d="M896.88,-144.59C866.42,-134.48 827.17,-121.46 794.99,-110.78"/>
<polygon fill="black" stroke="black" points="795.84,-107.38 785.25,-107.55 793.63,-114.02 795.84,-107.38"/>
</g>
<!-- 8&#45;&gt;9 -->
<g id="edge10" class="edge">
<title>8&#45;&gt;9</title>
<path fill="none" stroke="black" d="M1588.25,-215.87C1574.88,-205.74 1557.88,-192.49 1543.35,-180 1525.71,-164.83 1526.66,-153.35 1505.35,-144 1454.42,-121.65 1145.67,-106 934.95,-97.76"/>
<polygon fill="black" stroke="black" points="934.8,-94.25 924.67,-97.36 934.53,-101.24 934.8,-94.25"/>
</g>
<!-- 8&#45;&gt;10 -->
<g id="edge13" class="edge">
<title>8&#45;&gt;10</title>
<path fill="none" stroke="black" d="M1657.1,-216.23C1684.17,-206.31 1718.64,-193.68 1747.21,-183.21"/>
<polygon fill="black" stroke="black" points="1748.46,-186.48 1756.65,-179.75 1746.05,-179.91 1748.46,-186.48"/>
</g>
<!-- 9&#45;&gt;14 -->
<g id="edge31" class="edge">
<title>9&#45;&gt;14</title>
<path fill="none" stroke="black" d="M702.06,-72.23C683.12,-62.69 659.19,-50.64 638.9,-40.42"/>
<polygon fill="black" stroke="black" points="640.36,-37.24 629.86,-35.87 637.22,-43.5 640.36,-37.24"/>
</g>
<!-- 10&#45;&gt;13 -->
<g id="edge18" class="edge">
<title>10&#45;&gt;13</title>
<path fill="none" stroke="black" d="M1867.53,-144.59C1908.77,-134.2 1962.23,-120.74 2005.25,-109.91"/>
<polygon fill="black" stroke="black" points="2006.26,-113.27 2015.1,-107.43 2004.55,-106.48 2006.26,-113.27"/>
</g>
<!-- 11&#45;&gt;12 -->
<g id="edge16" class="edge">
<title>11&#45;&gt;12</title>
<path fill="none" stroke="black" d="M1203.85,-216.41C1225.27,-206.67 1252.54,-194.28 1275.41,-183.88"/>
<polygon fill="black" stroke="black" points="1276.93,-187.04 1284.59,-179.71 1274.03,-180.66 1276.93,-187.04"/>
</g>
<!-- 12&#45;&gt;14 -->
<g id="edge21" class="edge">
<title>12&#45;&gt;14</title>
<path fill="none" stroke="black" d="M1262.11,-145.05C1189.34,-125.85 1061.93,-93.51 951.35,-72 876.88,-57.51 792.95,-44.82 725.4,-35.49"/>
<polygon fill="black" stroke="black" points="725.52,-31.97 715.13,-34.08 724.56,-38.9 725.52,-31.97"/>
</g>
<!-- 13&#45;&gt;14 -->
<g id="edge30" class="edge">
<title>13&#45;&gt;14</title>
<path fill="none" stroke="black" d="M1875.18,-79.32C1596.89,-66.2 1101.83,-42.84 816.17,-29.37"/>
<polygon fill="black" stroke="black" points="816.25,-25.87 806.09,-28.89 815.92,-32.86 816.25,-25.87"/>
</g>
<!-- 16&#45;&gt;17 -->
<g id="edge26" class="edge">
<title>16&#45;&gt;17</title>
<path fill="none" stroke="black" d="M505.43,-216.05C520.94,-206.7 540.36,-194.98 557.01,-184.93"/>
<polygon fill="black" stroke="black" points="559.18,-187.71 565.93,-179.55 555.56,-181.72 559.18,-187.71"/>
</g>
<!-- 17&#45;&gt;9 -->
<g id="edge27" class="edge">
<title>17&#45;&gt;9</title>
<path fill="none" stroke="black" d="M626.65,-144.59C646.21,-134.94 671.16,-122.64 692.22,-112.26"/>
<polygon fill="black" stroke="black" points="693.86,-115.36 701.28,-107.8 690.77,-109.08 693.86,-115.36"/>
</g>
</g>
</svg>
